<svg xmlns="http://www.w3.org/2000/svg" xmlns:xlink="http://www.w3.org/1999/xlink" contentStyleType="text/css" data-diagram-type="CLASS" height="284px" preserveAspectRatio="none" style="width:666px;height:284px;background:#FFFFFF;" version="1.1" viewBox="0 0 666 284" width="666px" zoomAndPan="magnify"><defs/><g><!--class IScreenBackend--><g class="entity" data-entity="IScreenBackend" data-source-line="1" data-uid="ent0002" id="entity_IScreenBackend"><rect fill="#F1F1F1" height="129.4844" rx="2.5" ry="2.5" style="stroke:#181818;stroke-width:0.5;" width="652.6025" x="7" y="148.3"/><ellipse cx="272.5864" cy="164.3" fill="#B4A7E5" rx="11" ry="11" style="stroke:#181818;stroke-width:1;"/><path d="M268.5083,160.0656 L268.5083,157.9094 L275.8989,157.9094 L275.8989,160.0656 L273.4302,160.0656 L273.4302,168.1437 L275.8989,168.1437 L275.8989,170.3 L268.5083,170.3 L268.5083,168.1437 L270.9771,168.1437 L270.9771,160.0656 L268.5083,160.0656 Z " fill="#000000"/><text fill="#000000" font-family="sans-serif" font-size="14" font-style="italic" lengthAdjust="spacing" textLength="112.9297" x="293.0864" y="169.1467">IScreenBackend</text><line style="stroke:#181818;stroke-width:0.5;" x1="8" x2="658.6025" y1="180.3" y2="180.3"/><line style="stroke:#181818;stroke-width:0.5;" x1="8" x2="658.6025" y1="188.3" y2="188.3"/><ellipse cx="18" cy="201.9484" fill="#84BE84" rx="3" ry="3" style="stroke:#038048;stroke-width:1;"/><text fill="#000000" font-family="sans-serif" font-size="14" lengthAdjust="spacing" textLength="344.5654" x="27" y="205.2951">GetScreenNum(aNumScreens: int32_t*): nsresult</text><ellipse cx="18" cy="218.2453" fill="#84BE84" rx="3" ry="3" style="stroke:#038048;stroke-width:1;"/><text fill="#000000" font-family="sans-serif" font-size="14" lengthAdjust="spacing" textLength="346.3086" x="27" y="221.592">GetDisplayType(aDisplayType: int32_t*): nsresult</text><ellipse cx="18" cy="234.5422" fill="#84BE84" rx="3" ry="3" style="stroke:#038048;stroke-width:1;"/><text fill="#000000" font-family="sans-serif" font-size="14" lengthAdjust="spacing" textLength="514.6299" x="27" y="237.8889">GetCurrentResolution(aIndex: int32_t, aRes: ScreenResolution*): nsresult</text><ellipse cx="18" cy="250.8391" fill="#84BE84" rx="3" ry="3" style="stroke:#038048;stroke-width:1;"/><text fill="#000000" font-family="sans-serif" font-size="14" lengthAdjust="spacing" textLength="626.6025" x="27" y="254.1857">GetSupportedResolutions(aIndex: int32_t, aList: nsTArray&lt;ScreenResolution&gt;*): nsresult</text><ellipse cx="18" cy="267.1359" fill="#84BE84" rx="3" ry="3" style="stroke:#038048;stroke-width:1;"/><text fill="#000000" font-family="sans-serif" font-size="14" lengthAdjust="spacing" textLength="442.6133" x="27" y="270.4826">SetResolution(aConfig: const ScreenBackendConfig&amp;): nsresult</text></g><!--class ScreenBackendLinux--><g class="entity" data-entity="ScreenBackendLinux" data-source-line="9" data-uid="ent0003" id="entity_ScreenBackendLinux"><rect fill="#F1F1F1" height="64.2969" rx="2.5" ry="2.5" style="stroke:#181818;stroke-width:0.5;" width="178.5215" x="133.04" y="7"/><ellipse cx="148.04" cy="23" fill="#ADD1B2" rx="11" ry="11" style="stroke:#181818;stroke-width:1;"/><path d="M151.0088,28.6406 Q150.4306,28.9375 149.79,29.0781 Q149.1494,29.2344 148.4463,29.2344 Q145.9463,29.2344 144.6181,27.5938 Q143.3056,25.9375 143.3056,22.8125 Q143.3056,19.6875 144.6181,18.0313 Q145.9463,16.375 148.4463,16.375 Q149.1494,16.375 149.79,16.5313 Q150.4463,16.6875 151.0088,16.9844 L151.0088,19.7031 Q150.3838,19.125 149.79,18.8594 Q149.1963,18.5781 148.5713,18.5781 Q147.2275,18.5781 146.54,19.6563 Q145.8525,20.7188 145.8525,22.8125 Q145.8525,24.9063 146.54,25.9844 Q147.2275,27.0469 148.5713,27.0469 Q149.1963,27.0469 149.79,26.7813 Q150.3838,26.5 151.0088,25.9219 L151.0088,28.6406 Z " fill="#000000"/><text fill="#000000" font-family="sans-serif" font-size="14" lengthAdjust="spacing" textLength="146.5215" x="162.04" y="27.8467">ScreenBackendLinux</text><line style="stroke:#181818;stroke-width:0.5;" x1="134.04" x2="310.5615" y1="39" y2="39"/><text fill="#000000" font-family="sans-serif" font-size="14" lengthAdjust="spacing" textLength="61.3252" x="139.04" y="55.9951">// Xrandr</text><line style="stroke:#181818;stroke-width:0.5;" x1="134.04" x2="310.5615" y1="63.2969" y2="63.2969"/></g><!--class ScreenBackendAndroid--><g class="entity" data-entity="ScreenBackendAndroid" data-source-line="12" data-uid="ent0004" id="entity_ScreenBackendAndroid"><rect fill="#F1F1F1" height="64.2969" rx="2.5" ry="2.5" style="stroke:#181818;stroke-width:0.5;" width="195.2354" x="346.68" y="7"/><ellipse cx="361.68" cy="23" fill="#ADD1B2" rx="11" ry="11" style="stroke:#181818;stroke-width:1;"/><path d="M364.6488,28.6406 Q364.0706,28.9375 363.43,29.0781 Q362.7894,29.2344 362.0863,29.2344 Q359.5863,29.2344 358.2581,27.5938 Q356.9456,25.9375 356.9456,22.8125 Q356.9456,19.6875 358.2581,18.0313 Q359.5863,16.375 362.0863,16.375 Q362.7894,16.375 363.43,16.5313 Q364.0863,16.6875 364.6488,16.9844 L364.6488,19.7031 Q364.0238,19.125 363.43,18.8594 Q362.8363,18.5781 362.2113,18.5781 Q360.8675,18.5781 360.18,19.6563 Q359.4925,20.7188 359.4925,22.8125 Q359.4925,24.9063 360.18,25.9844 Q360.8675,27.0469 362.2113,27.0469 Q362.8363,27.0469 363.43,26.7813 Q364.0238,26.5 364.6488,25.9219 L364.6488,28.6406 Z " fill="#000000"/><text fill="#000000" font-family="sans-serif" font-size="14" lengthAdjust="spacing" textLength="163.2354" x="375.68" y="27.8467">ScreenBackendAndroid</text><line style="stroke:#181818;stroke-width:0.5;" x1="347.68" x2="540.9154" y1="39" y2="39"/><text fill="#000000" font-family="sans-serif" font-size="14" lengthAdjust="spacing" textLength="115.1787" x="352.68" y="55.9951">// SurfaceFlinger</text><line style="stroke:#181818;stroke-width:0.5;" x1="347.68" x2="540.9154" y1="63.2969" y2="63.2969"/></g><!--link ScreenBackendLinux to IScreenBackend--><g class="link" data-entity-1="ScreenBackendLinux" data-entity-2="IScreenBackend" data-source-line="16" data-uid="lnk5" id="link_ScreenBackendLinux_IScreenBackend"><path codeLine="16" d="M242.66,71.67 C256.43,93 265.3362,106.7882 282.1562,132.8382" fill="none" id="ScreenBackendLinux-to-IScreenBackend" style="stroke:#181818;stroke-width:1;"/><polygon fill="none" points="291.92,147.96,287.1967,129.5836,277.1156,136.0929,291.92,147.96" style="stroke:#181818;stroke-width:1;"/><text fill="#000000" font-family="sans-serif" font-size="13" lengthAdjust="spacing" textLength="76.9082" x="272.3" y="114.3669">implements</text></g><!--link ScreenBackendAndroid to IScreenBackend--><g class="link" data-entity-1="ScreenBackendAndroid" data-entity-2="IScreenBackend" data-source-line="17" data-uid="lnk6" id="link_ScreenBackendAndroid_IScreenBackend"><path codeLine="17" d="M423.94,71.67 C410.17,93 401.2638,106.7882 384.4438,132.8382" fill="none" id="ScreenBackendAndroid-to-IScreenBackend" style="stroke:#181818;stroke-width:1;"/><polygon fill="none" points="374.68,147.96,389.4844,136.0929,379.4033,129.5836,374.68,147.96" style="stroke:#181818;stroke-width:1;"/><text fill="#000000" font-family="sans-serif" font-size="13" lengthAdjust="spacing" textLength="76.9082" x="402.3" y="114.3669">implements</text></g><!--SRC=[XP5FImCn4CNl-HGvoVgd5FIsIA5Mb4BnuFRWJK8oBS7i94mcq4NzxgQkTBirQ0w1oRpto_368WDjb0QvR3G1u9tIRu16lWkPp-KZSF_-bDfAvQklOYqjyitrAr-Srn8ZGKoE3vPx6uDJtReBKAcZuc_N8X41yZD4xn9RZvLQee7TmNKbLMxMifzXq1LfJGh14uCPTB40NDd8U_TwJgIwsrFqx3UxWT682uyRkwsbpdoMen3xrjanuLC8xLICO-7AOjhzH3wToXTIQ2Xh2z9vxdXh1d6JllVtu2nkOMyI1VHayZ4xtN1EeGqEsXnv5CK__dDz0G00]--></g></svg>